<?xml version="1.0" encoding="UTF-8" standalone="no"?>
<svg width="145px" height="139px" viewBox="0 0 145 139" version="1.1" xmlns="http://www.w3.org/2000/svg" xmlns:xlink="http://www.w3.org/1999/xlink" xmlns:sketch="http://www.bohemiancoding.com/sketch/ns">
    <!-- Generator: Sketch 3.3.2 (12043) - http://www.bohemiancoding.com/sketch -->
    <title>Imported Layers</title>
    <desc>Created with Sketch.</desc>
    <defs></defs>
    <g id="Page-1" stroke="none" stroke-width="1" fill="none" fill-rule="evenodd" sketch:type="MSPage">
        <g id="Postshame" sketch:type="MSArtboardGroup" transform="translate(-647.000000, -380.000000)" fill="#000000">
            <g id="Imported-Layers" sketch:type="MSLayerGroup" transform="translate(647.000000, 380.000000)">
                <path d="M69.948,27.842 L69.947,27.842 L51.064,21.815 C46.933,20.495 42.516,22.775 41.197,26.906 C39.879,31.036 42.158,35.454 46.289,36.773 L65.173,42.799 L65.174,42.799 C69.304,44.117 73.721,41.838 75.04,37.708 C76.358,33.577 74.078,29.16 69.948,27.842" id="Fill-1" sketch:type="MSShapeGroup"></path>
                <path d="M71.387,46.567 L71.387,46.567 L45.772,38.393 C41.642,37.073 37.224,39.354 35.906,43.484 C34.587,47.614 36.867,52.032 40.998,53.351 L66.613,61.525 C70.744,62.845 75.161,60.565 76.479,56.434 C77.797,52.304 75.518,47.887 71.387,46.567" id="Fill-2" sketch:type="MSShapeGroup"></path>
                <path d="M59.365,60.998 L59.365,60.998 L40.481,54.97 C36.35,53.651 31.933,55.932 30.615,60.062 C29.296,64.192 31.576,68.609 35.707,69.928 L54.59,75.956 L54.591,75.956 C58.721,77.274 63.138,74.994 64.457,70.863 C65.775,66.733 63.495,62.315 59.365,60.998" id="Fill-3" sketch:type="MSShapeGroup"></path>
                <path d="M49.586,76.144 L49.586,76.144 L35.19,71.549 C31.059,70.231 26.641,72.51 25.323,76.64 C24.004,80.771 26.285,85.188 30.415,86.506 L44.812,91.102 C48.942,92.42 53.36,90.141 54.678,86.01 C55.996,81.879 53.717,77.462 49.586,76.144" id="Fill-4" sketch:type="MSShapeGroup"></path>
                <path d="M133.519,48.132 L99.825,37.377 C99.825,37.377 96.243,36.102 95.612,39.741 C95.003,43.255 94.73,53.47 108.942,58.006 C112.797,59.236 119.245,61.294 119.598,61.406 L99.606,124.043 L108.394,126.848 L108.395,126.848 C114.332,128.742 120.682,125.465 122.577,119.528 L140.838,62.315 C142.733,56.377 139.456,50.027 133.519,48.132" id="Fill-5" sketch:type="MSShapeGroup"></path>
                <path d="M89.453,116.063 L32.48,97.879 L35.046,89.839 L26.652,87.159 L19.879,108.381 C18.304,113.316 21.053,118.645 25.989,120.22 L81.8,138.033 C86.736,139.609 92.064,136.859 93.639,131.924 L115.75,62.65 L107.356,59.971 L89.453,116.063 L89.453,116.063 Z M56.043,122.396 C53.565,121.604 52.197,118.954 52.988,116.477 C53.779,113.998 56.43,112.63 58.907,113.421 C61.386,114.212 62.753,116.862 61.963,119.341 C61.172,121.819 58.521,123.186 56.043,122.396 L56.043,122.396 Z" id="Fill-6" sketch:type="MSShapeGroup"></path>
                <path d="M60.409,10.375 L117.381,28.561 L113.801,39.778 L122.195,42.458 L126.044,30.398 C127.62,25.462 124.87,20.134 119.934,18.559 L64.123,0.744 C59.187,-0.831 53.859,1.919 52.284,6.855 L48.435,18.914 L56.829,21.594 L60.409,10.375" id="Fill-7" sketch:type="MSShapeGroup"></path>
                <path d="M133.95,29.831 C133.02,29.534 132.507,28.54 132.804,27.61 C134.318,22.868 131.69,17.778 126.948,16.265 C126.019,15.968 125.506,14.974 125.802,14.045 C126.099,13.115 127.092,12.603 128.022,12.899 C134.621,15.005 138.276,22.087 136.169,28.685 C135.874,29.614 134.879,30.128 133.95,29.831" id="Fill-8" sketch:type="MSShapeGroup"></path>
                <path d="M141.047,31.478 C140.118,31.181 139.604,30.188 139.901,29.258 C142.534,21.011 137.965,12.158 129.717,9.526 C128.788,9.229 128.275,8.235 128.571,7.306 C128.868,6.377 129.862,5.864 130.792,6.16 C140.895,9.385 146.491,20.229 143.266,30.332 C142.969,31.262 141.976,31.774 141.047,31.478" id="Fill-9" sketch:type="MSShapeGroup"></path>
                <path d="M16.761,125.412 C10.162,123.306 6.507,116.225 8.613,109.626 C8.91,108.696 9.904,108.184 10.833,108.481 C11.763,108.776 12.275,109.771 11.979,110.7 C10.465,115.442 13.092,120.533 17.835,122.046 C18.764,122.343 19.277,123.337 18.981,124.267 C18.684,125.195 17.69,125.708 16.761,125.412" id="Fill-10" sketch:type="MSShapeGroup"></path>
                <path d="M13.992,132.151 C3.888,128.926 -1.708,118.082 1.517,107.978 C1.814,107.049 2.807,106.536 3.737,106.833 C4.666,107.13 5.179,108.123 4.882,109.053 C2.25,117.302 6.818,126.153 15.066,128.786 C15.995,129.082 16.508,130.076 16.211,131.005 C15.915,131.935 14.921,132.448 13.992,132.151" id="Fill-11" sketch:type="MSShapeGroup"></path>
            </g>
        </g>
    </g>
</svg>