<?xml version="1.0" encoding="UTF-8" standalone="no"?>
<svg width="151px" height="115px" viewBox="0 0 151 115" version="1.1" xmlns="http://www.w3.org/2000/svg" xmlns:xlink="http://www.w3.org/1999/xlink" xmlns:sketch="http://www.bohemiancoding.com/sketch/ns">
    <!-- Generator: Sketch 3.3.2 (12043) - http://www.bohemiancoding.com/sketch -->
    <title>Shape</title>
    <desc>Created with Sketch.</desc>
    <defs></defs>
    <g id="Page-1" stroke="none" stroke-width="1" fill="none" fill-rule="evenodd" sketch:type="MSPage">
        <g id="noun_137742_cc" sketch:type="MSLayerGroup" fill="#FFFFFF">
            <path d="M140.353691,38.9000675 C138.542253,37.0886301 135.608714,37.0886301 133.797276,38.9000675 C131.985839,40.7115049 131.985839,43.6481354 133.797276,45.4595728 C138.743181,50.4023857 141.460337,56.9742558 141.460337,63.9634366 C141.460337,70.9557085 138.736998,77.5275786 133.791094,82.4703915 C131.979657,84.2787377 131.979657,87.2153683 133.791094,89.0268057 C134.696813,89.9325243 135.88383,90.3838381 137.070847,90.3838381 C138.257864,90.3838381 139.444881,89.9325243 140.350599,89.0268057 C147.049208,82.3343792 150.736998,73.4317518 150.736998,63.9634366 C150.740089,54.4920302 147.049208,45.592494 140.353691,38.9000675 L140.353691,38.9000675 Z M120.752454,51.9479808 C118.941017,53.7594182 118.941017,56.6960487 120.752454,58.5074861 C122.211496,59.9634366 123.009023,61.8985216 123.009023,63.9603454 C123.009023,66.0221692 122.205314,67.9634365 120.746272,69.4255694 C118.934835,71.2370068 118.934835,74.1705462 120.746272,75.9819836 C121.651991,76.8877023 122.839008,77.339016 124.026025,77.339016 C125.213042,77.339016 126.400059,76.8877023 127.305777,75.9819836 C130.517524,72.7702371 132.285685,68.5013036 132.285685,63.9634366 C132.288776,59.4224784 130.520615,55.1566361 127.31196,51.9479808 C125.497431,50.1396346 122.557709,50.1365434 120.752454,51.9479808 L120.752454,51.9479808 Z M30.7246349,69.4162959 C29.2655931,67.9572541 28.4649749,66.0221692 28.4649749,63.9603454 C28.4649749,61.8985216 29.2717755,59.9572542 30.7308172,58.4951213 C32.5422546,56.6867752 32.5422546,53.7470534 30.7308172,51.9387072 C28.9193799,50.1272698 25.9858405,50.1272698 24.1744031,51.9387072 C20.9626566,55.1504537 19.1944959,59.416296 19.1914047,63.9572542 C19.1914047,68.4982124 20.9595654,72.7671459 24.1682207,75.97271 C25.0739394,76.8784287 26.2609564,77.3297424 27.4479734,77.3297424 C28.6349904,77.3297424 29.8220074,76.8784287 30.727726,75.97271 C32.5360722,74.1612726 32.5360722,71.224642 30.7246349,69.4162959 L30.7246349,69.4162959 Z M17.6859951,38.8969763 C15.8745578,37.0855389 12.9379272,37.0886301 11.1264898,38.8969763 C4.42788094,45.592494 0.74009119,54.4920302 0.737,63.9634366 C0.737,73.4286606 4.42478975,82.331288 11.1203074,89.0237145 C12.0260261,89.9294332 13.2130431,90.3807469 14.4000601,90.3807469 C15.5870771,90.3807469 16.7740941,89.9294332 17.6798128,89.0237145 C19.488159,87.2122771 19.488159,84.2787377 17.6798128,82.4673003 C12.7369998,77.5213962 10.0136614,70.9526173 10.0136614,63.9634366 C10.0136614,56.9711646 12.740091,50.3992946 17.6859951,45.4564816 C19.4943413,43.6419531 19.4943413,40.7053225 17.6859951,38.8969763 L17.6859951,38.8969763 Z M111.404696,76.4394797 L111.404696,55.3606546 C111.404696,40.0283519 101.661265,26.9618915 88.0507547,21.9325252 C89.3552369,19.7686922 90.1496727,17.261737 90.1496727,14.5569457 C90.1496727,6.61258724 83.6829031,0.152 75.7385446,0.152 C67.7941861,0.152 61.3305077,6.61258724 61.3305077,14.5569457 C61.3305077,17.261737 62.1249436,19.765601 63.4263346,21.929434 C49.8189159,26.9588003 40.0723936,40.0252607 40.0723936,55.3606546 L40.0723936,76.4394797 L32.4804308,92.0932662 C31.7818219,93.5306696 31.8745576,95.2246417 32.7246348,96.5754918 C33.5716209,97.929433 35.0553921,98.7516896 36.6535374,98.7516896 L56.2918679,98.7516896 C58.390786,107.555399 66.3042325,114.13036 75.7416358,114.13036 C85.1790391,114.13036 93.0924857,107.555399 95.1914037,98.7516896 L114.826643,98.7516896 C114.851373,98.7516896 114.873011,98.7547808 114.888467,98.7516896 C117.451063,98.7516896 119.525252,96.6744099 119.525252,94.1149045 C119.525252,93.1319061 119.219224,92.220005 118.696813,91.471937 L111.404696,76.4394797 L111.404696,76.4394797 Z M75.7385446,9.42247901 C78.5700747,9.42247901 80.8761025,11.7254156 80.8761025,14.5538545 C80.8761025,17.3884758 78.5700747,19.6914124 75.7385446,19.6914124 C72.9070145,19.6914124 70.6040779,17.3853846 70.6040779,14.5538545 C70.6040779,11.7254156 72.9070145,9.42247901 75.7385446,9.42247901 L75.7385446,9.42247901 Z M49.3459638,55.3606546 C49.3459638,40.8073318 61.1852218,28.9680738 75.7354534,28.9680738 C90.2887763,28.9680738 102.131125,40.8073318 102.131125,55.3606546 L102.131125,72.866064 L49.3459638,72.866064 L49.3459638,55.3606546 L49.3459638,55.3606546 Z M75.7385446,104.85679 C71.4850671,104.85679 67.8312804,102.349835 66.0940316,98.7516896 L85.3830576,98.7516896 C83.6489,102.352926 79.9951133,104.85679 75.7385446,104.85679 L75.7385446,104.85679 Z M44.0538464,89.4812106 L47.6118062,82.1396342 L103.862192,82.1396342 L107.41706,89.4812106 L44.0538464,89.4812106 L44.0538464,89.4812106 Z" id="Shape" sketch:type="MSShapeGroup"></path>
        </g>
    </g>
</svg>